# xmcd CD database file
#
# Track frame offsets:
#	187
#	22944
#	42169
#
# Disc length: 863 seconds
#
# Revision: 0
# Processed by: cddbd v1.5.1PL0 Copyright (c) Steve Scherf et al.
# Submitted via: CDex 1.51
#
DISCID=17035d03
DTITLE=山本正之 - 怪人Jijy面相
DYEAR=1900
DGENRE=Vocal
TTITLE0=怪人Jijy面相
TTITLE1=ジパング難破船
TTITLE2=怪人Jijy面相(オリジナル・カラオケ)
EXTD=
EXTT0=
EXTT1=
EXTT2=
PLAYORDER=
